<svg width="32" height="32" viewBox="0 0 32 32" fill="none" xmlns="http://www.w3.org/2000/svg">
<rect width="32" height="32" transform="translate(1.39876e-06 32) rotate(-90)" fill="black"/>
<path d="M24.7254 20.0032C24.053 20.0032 23.4716 19.8604 22.981 19.5747C22.4934 19.2862 22.1168 18.8851 21.8513 18.3715C21.5859 17.855 21.4531 17.2563 21.4531 16.5753C21.4531 15.8885 21.5859 15.2884 21.8513 14.7747C22.1168 14.2582 22.4934 13.8572 22.981 13.5715C23.4716 13.2829 24.053 13.1387 24.7254 13.1387C25.3977 13.1387 25.9777 13.2829 26.4654 13.5715C26.9559 13.8572 27.3339 14.2582 27.5994 14.7747C27.8649 15.2884 27.9976 15.8885 27.9976 16.5753C27.9976 17.2563 27.8649 17.855 27.5994 18.3715C27.3339 18.8851 26.9559 19.2862 26.4654 19.5747C25.9777 19.8604 25.3977 20.0032 24.7254 20.0032ZM24.734 18.5749C25.0399 18.5749 25.2953 18.4884 25.5001 18.3152C25.705 18.1392 25.8594 17.8997 25.9633 17.5967C26.07 17.2938 26.1234 16.9489 26.1234 16.5623C26.1234 16.1756 26.07 15.8308 25.9633 15.5278C25.8594 15.2249 25.705 14.9854 25.5001 14.8094C25.2953 14.6334 25.0399 14.5453 24.734 14.5453C24.4253 14.5453 24.1656 14.6334 23.9549 14.8094C23.7472 14.9854 23.5899 15.2249 23.4831 15.5278C23.3792 15.8308 23.3273 16.1756 23.3273 16.5623C23.3273 16.9489 23.3792 17.2938 23.4831 17.5967C23.5899 17.8997 23.7472 18.1392 23.9549 18.3152C24.1656 18.4884 24.4253 18.5749 24.734 18.5749Z" fill="white"/>
<path d="M9.16615 16.0299V19.8734H7.32227V13.2252H9.07958V14.3982H9.15749C9.30465 14.0115 9.55137 13.7057 9.89764 13.4806C10.2439 13.2526 10.6638 13.1387 11.1572 13.1387C11.6189 13.1387 12.0214 13.2397 12.3648 13.4416C12.7082 13.6436 12.9751 13.9322 13.1655 14.3073C13.356 14.6795 13.4512 15.1239 13.4512 15.6404V19.8734H11.6073V15.9693C11.6102 15.5625 11.5063 15.2451 11.2957 15.0171C11.0851 14.7863 10.7951 14.6709 10.4257 14.6709C10.1775 14.6709 9.95824 14.7242 9.76779 14.831C9.58023 14.9378 9.43306 15.0936 9.3263 15.2985C9.22242 15.5004 9.16903 15.7443 9.16615 16.0299Z" fill="white"/>
<path d="M4 19.8402V13.192H5.84388V19.8402H4Z" fill="white"/>
<path d="M16.3789 15.6533H16.4463L18.9268 12.7822H21.0439L19.0088 15.1191C19.2467 15.1684 19.4656 15.2495 19.6641 15.3662C20.0074 15.5682 20.2744 15.8574 20.4648 16.2324C20.6552 16.6046 20.75 17.0491 20.75 17.5654V19.8379H18.9063V17.8945C18.9091 17.4878 18.8052 17.1703 18.5947 16.9424C18.3841 16.7115 18.094 16.5957 17.7246 16.5957C17.4765 16.5957 17.2569 16.6491 17.0664 16.7559C16.8789 16.8626 16.7317 17.0188 16.625 17.2236C16.5212 17.4256 16.4677 17.6696 16.4648 17.9551V19.8379H14.6211V11H16.3789V15.6533Z" fill="white"/>
<path d="M4 11.9218C4 11.4127 4.41272 11 4.92183 11C5.43094 11 5.84366 11.4127 5.84366 11.9218C5.84366 12.4309 5.43094 12.8436 4.92183 12.8436C4.41272 12.8436 4 12.4309 4 11.9218Z" fill="#8EE8FF"/>
</svg>
