<svg width="32" height="32" viewBox="0 0 32 32" fill="none" xmlns="http://www.w3.org/2000/svg">
<path d="M7.27257 27.877V15.0648L3.43829 11.4297L0 9.41248V25.616C0 26.867 0.9781 27.877 2.18182 27.877H7.27257Z" fill="#4285F4"/>
<path d="M24.7266 27.877H29.8173C31.0247 27.877 31.9991 26.8632 31.9991 25.616V9.4126L28.1047 11.7231L24.7266 15.0648V27.877Z" fill="#34A853"/>
<path d="M7.27369 15.0647L6.75195 10.0587L7.27369 5.26733L16.0007 12.0502L24.7278 5.26733L25.3114 9.79998L24.7278 15.0647L16.0007 21.8476L7.27369 15.0647Z" fill="#EA4335"/>
<path d="M24.7266 5.26732V15.0647L31.9991 9.4124V6.39776C31.9991 3.60177 28.9192 2.00786 26.763 3.68467L24.7266 5.26732Z" fill="#FBBC04"/>
<path d="M0 9.41245L3.34479 12.0122L7.27257 15.0648V5.26738L5.23612 3.68473C3.07617 2.00779 0 3.60183 0 6.39769V9.41245Z" fill="#C5221F"/>
</svg>
