<svg width="32" height="32" viewBox="0 0 32 32" fill="none" xmlns="http://www.w3.org/2000/svg">
<path d="M23.7889 10.5322V6.72138C24.8304 6.24119 25.4986 5.21141 25.5056 4.07722V3.98906C25.5056 2.36655 24.1711 1.05104 22.526 1.05104H22.4392C20.7941 1.05104 19.4603 2.36655 19.4603 3.98906V4.07722C19.4646 4.63451 19.6295 5.17909 19.9359 5.6474C20.2422 6.1157 20.6773 6.48841 21.1903 6.722V10.5322C19.724 10.753 18.3388 11.3563 17.1844 12.2729L6.58544 4.13662C6.66088 3.86839 6.70145 3.59078 6.70526 3.31317V3.30629C6.70526 1.48058 5.20407 0 3.35231 0C1.50119 0 0 1.48058 0 3.30629C0 5.13075 1.49865 6.61071 3.34787 6.61321C3.9292 6.60821 4.49912 6.45127 4.99994 6.16116L15.436 14.1687C14.5203 15.5338 14.0318 17.1343 14.0311 18.7711C14.0311 20.4836 14.5675 22.158 15.564 23.5592L12.3905 26.6892C12.1347 26.6144 11.8693 26.5763 11.6025 26.576C10.0836 26.576 8.85243 27.7902 8.85243 29.2877C8.85243 30.7858 10.0836 32 11.6025 32C13.1208 32 14.3519 30.7858 14.3519 29.2877V29.2796C14.3497 29.0141 14.3065 28.7506 14.2239 28.498L17.3632 25.3993C18.8447 26.5249 20.6622 27.1356 22.5324 27.1362C27.2084 27.1362 31 23.3966 31 18.7848C31 14.6551 27.938 11.1444 23.7977 10.5279L23.7889 10.5322ZM22.4962 23.0621C20.1639 22.9671 18.3217 21.0745 18.3217 18.7717C18.3217 16.5565 20.0315 14.7039 22.2667 14.4963H22.4962C24.7658 14.667 26.5193 16.5333 26.5193 18.778C26.5193 21.0232 24.7658 22.8896 22.4969 23.0596L22.4962 23.0621Z" fill="#FF7A59"/>
</svg>
