<svg width="32" height="32" viewBox="0 0 32 32" fill="none" xmlns="http://www.w3.org/2000/svg">
<path d="M13.332 7.39413C14.3581 6.32631 15.7842 5.66196 17.3633 5.66196C19.4642 5.66196 21.2937 6.83413 22.2677 8.56979C23.1164 8.19066 24.052 7.97848 25.0398 7.97848C28.8277 7.97848 31.8955 11.0741 31.8955 14.8933C31.8955 18.7124 28.8277 21.808 25.0398 21.808C24.5772 21.808 24.1251 21.7628 23.6903 21.6724C22.8311 23.2028 21.1929 24.2394 19.3146 24.2394C18.5285 24.2394 17.7842 24.0585 17.1233 23.735C16.2537 25.7837 14.2224 27.2202 11.8607 27.2202C9.49897 27.2202 7.30071 25.662 6.49375 23.4776C6.14245 23.5507 5.77723 23.5924 5.40158 23.5924C2.4694 23.5924 0.09375 21.1924 0.09375 18.2289C0.09375 16.2428 1.16158 14.5107 2.74766 13.582C2.42071 12.8307 2.23984 11.9994 2.23984 11.1298C2.24332 7.72805 5.01201 4.96631 8.42071 4.96631C10.4242 4.96631 12.2051 5.91935 13.332 7.39413Z" fill="#33A6FF"/>
</svg>
