<svg width="37" height="37" viewBox="0 0 37 37" fill="none" xmlns="http://www.w3.org/2000/svg">
<path d="M0.352661 8.67649C0.352661 4.07937 4.07937 0.352661 8.67649 0.352661C13.2736 0.352661 17.0003 4.07937 17.0003 8.67649C17.0003 13.2736 13.2736 17.0003 8.67649 17.0003C4.07937 17.0003 0.352661 13.2736 0.352661 8.67649Z" fill="#FF8C00"/>
<path d="M20.0011 8.67649C20.0011 4.07937 23.7278 0.352661 28.3249 0.352661C32.922 0.352661 36.6487 4.07937 36.6487 8.67649C36.6487 13.2736 32.922 17.0003 28.3249 17.0003C23.7278 17.0003 20.0011 13.2736 20.0011 8.67649Z" fill="#E7E7E7"/>
<path d="M0.352661 28.323C0.352661 23.7259 4.07937 19.9991 8.67649 19.9991C13.2736 19.9991 17.0003 23.7259 17.0003 28.323C17.0003 32.9201 13.2736 36.6468 8.67649 36.6468C4.07937 36.6468 0.352661 32.9201 0.352661 28.323Z" fill="#E7E7E7"/>
<path d="M20.0011 28.323C20.0011 23.7259 23.7278 19.9991 28.3249 19.9991C32.922 19.9991 36.6487 23.7259 36.6487 28.323C36.6487 32.9201 32.922 36.6468 28.3249 36.6468C23.7278 36.6468 20.0011 32.9201 20.0011 28.323Z" fill="#E7E7E7"/>
</svg>
