<svg width="64" height="24" viewBox="0 0 64 24" fill="none" xmlns="http://www.w3.org/2000/svg">
<path d="M55.2518 24C53.4596 24 51.9097 23.6193 50.6021 22.8578C49.3022 22.0886 48.2984 21.0194 47.5908 19.6503C46.8831 18.2735 46.5293 16.6774 46.5293 14.8622C46.5293 13.0315 46.8831 11.4316 47.5908 10.0625C48.2984 8.68565 49.3022 7.61649 50.6021 6.855C51.9097 6.08582 53.4596 5.70123 55.2518 5.70123C57.044 5.70123 58.59 6.08582 59.8899 6.855C61.1975 7.61649 62.2052 8.68565 62.9128 10.0625C63.6205 11.4316 63.9743 13.0315 63.9743 14.8622C63.9743 16.6774 63.6205 18.2735 62.9128 19.6503C62.2052 21.0194 61.1975 22.0886 59.8899 22.8578C58.59 23.6193 57.044 24 55.2518 24ZM55.2749 20.1926C56.0902 20.1926 56.7709 19.9618 57.317 19.5003C57.8631 19.0311 58.2747 18.3927 58.5516 17.585C58.8362 16.7774 58.9785 15.8582 58.9785 14.8275C58.9785 13.7968 58.8362 12.8777 58.5516 12.07C58.2747 11.2624 57.8631 10.624 57.317 10.1548C56.7709 9.68558 56.0902 9.45098 55.2749 9.45098C54.4518 9.45098 53.7596 9.68558 53.1981 10.1548C52.6443 10.624 52.2251 11.2624 51.9405 12.07C51.6636 12.8777 51.5251 13.7968 51.5251 14.8275C51.5251 15.8582 51.6636 16.7774 51.9405 17.585C52.2251 18.3927 52.6443 19.0311 53.1981 19.5003C53.7596 19.9618 54.4518 20.1926 55.2749 20.1926Z" fill="white"/>
<path d="M13.7676 13.4084V23.6539H8.85254V5.93199H13.5368V9.0587H13.7445C14.1368 8.028 14.7944 7.21267 15.7175 6.61271C16.6405 6.00506 17.7596 5.70123 19.0749 5.70123C20.3056 5.70123 21.3786 5.97044 22.2939 6.50887C23.2093 7.04729 23.9208 7.81647 24.4284 8.81641C24.9361 9.80865 25.1899 10.9932 25.1899 12.37V23.6539H20.2748V13.2469C20.2825 12.1623 20.0056 11.3162 19.4441 10.7086C18.8826 10.0932 18.1096 9.78557 17.1251 9.78557C16.4636 9.78557 15.879 9.92787 15.3713 10.2125C14.8714 10.4971 14.4791 10.9124 14.1945 11.4585C13.9176 11.997 13.7753 12.6469 13.7676 13.4084Z" fill="white"/>
<path d="M0 23.5649V5.84302H4.91505V23.5649H0Z" fill="white"/>
<path d="M32.999 12.4053H33.1777L39.791 4.75098H45.4326L40.0098 10.9785C40.6443 11.1098 41.2267 11.3284 41.7559 11.6396C42.6712 12.1781 43.383 12.9474 43.8906 13.9473C44.3983 14.9395 44.6523 16.1241 44.6523 17.501V23.5586H39.7373V18.3779C39.745 17.2934 39.4677 16.4475 38.9062 15.8398C38.3448 15.2246 37.5722 14.9161 36.5879 14.916C35.9264 14.916 35.3416 15.0592 34.834 15.3438C34.334 15.6283 33.9418 16.0437 33.6572 16.5898C33.3804 17.1282 33.2372 17.7778 33.2295 18.5391V23.5586H28.3145V0H32.999V12.4053Z" fill="white"/>
<path d="M0 2.45723C0 1.10014 1.10014 0 2.45723 0C3.81432 0 4.91446 1.10014 4.91446 2.45723C4.91446 3.81432 3.81432 4.91446 2.45723 4.91446C1.10014 4.91446 0 3.81432 0 2.45723Z" fill="#8EE8FF"/>
</svg>
