<svg width="64" height="64" viewBox="0 0 64 64" fill="none" xmlns="http://www.w3.org/2000/svg">
<path d="M37.876 29H34.876V15H35.876C37.7325 15 39.513 15.7375 40.8257 17.0503C42.1385 18.363 42.876 20.1435 42.876 22C42.876 22.7956 43.192 23.5587 43.7547 24.1213C44.3173 24.6839 45.0803 25 45.876 25C46.6716 25 47.4347 24.6839 47.9973 24.1213C48.5599 23.5587 48.876 22.7956 48.876 22C48.872 18.5534 47.5011 15.2491 45.064 12.812C42.6269 10.3749 39.3226 9.00397 35.876 9H34.876V6C34.876 5.20435 34.5599 4.44129 33.9973 3.87868C33.4347 3.31607 32.6716 3 31.876 3C31.0803 3 30.3173 3.31607 29.7547 3.87868C29.192 4.44129 28.876 5.20435 28.876 6V9H27.876C24.4282 9 21.1216 10.3696 18.6836 12.8076C16.2456 15.2456 14.876 18.5522 14.876 22C14.876 25.4478 16.2456 28.7544 18.6836 31.1924C21.1216 33.6304 24.4282 35 27.876 35H28.876V49H25.876C24.0195 49 22.239 48.2625 20.9262 46.9497C19.6135 45.637 18.876 43.8565 18.876 42C18.876 41.2043 18.5599 40.4413 17.9973 39.8787C17.4347 39.3161 16.6716 39 15.876 39C15.0803 39 14.3173 39.3161 13.7547 39.8787C13.192 40.4413 12.876 41.2043 12.876 42C12.8799 45.4466 14.2509 48.7509 16.688 51.188C19.1251 53.6251 22.4294 54.996 25.876 55H28.876V58C28.876 58.7957 29.192 59.5587 29.7547 60.1213C30.3173 60.6839 31.0803 61 31.876 61C32.6716 61 33.4347 60.6839 33.9973 60.1213C34.5599 59.5587 34.876 58.7957 34.876 58V55H37.876C41.3238 55 44.6304 53.6304 47.0684 51.1924C49.5063 48.7544 50.876 45.4478 50.876 42C50.876 38.5522 49.5063 35.2456 47.0684 32.8076C44.6304 30.3696 41.3238 29 37.876 29ZM27.876 29C26.0195 29 24.239 28.2625 22.9262 26.9497C21.6135 25.637 20.876 23.8565 20.876 22C20.876 20.1435 21.6135 18.363 22.9262 17.0503C24.239 15.7375 26.0195 15 27.876 15H28.876V29H27.876ZM37.876 49H34.876V35H37.876C39.7325 35 41.513 35.7375 42.8257 37.0503C44.1385 38.363 44.876 40.1435 44.876 42C44.876 43.8565 44.1385 45.637 42.8257 46.9497C41.513 48.2625 39.7325 49 37.876 49Z" fill="#090C0D"/>
</svg>
