<svg width="64" height="64" viewBox="0 0 64 64" fill="none" xmlns="http://www.w3.org/2000/svg">
<path d="M32 57C26.2083 55.5417 21.4271 52.2188 17.6562 47.0312C13.8854 41.8438 12 36.0833 12 29.75V14.5L32 7L52 14.5V29.75C52 36.0833 50.1146 41.8438 46.3438 47.0312C42.5729 52.2188 37.7917 55.5417 32 57ZM32 51.75C36.0417 50.5 39.4167 48.0312 42.125 44.3438C44.8333 40.6562 46.4167 36.5417 46.875 32H32V12.3125L17 17.9375V29.75C17 30.2083 17 30.5833 17 30.875C17 31.1667 17.0417 31.5417 17.125 32H32V51.75Z" fill="#090C0D"/>
</svg>
