<svg width="64" height="64" viewBox="0 0 64 64" fill="none" xmlns="http://www.w3.org/2000/svg">
<path d="M53.9985 19.88L39.9985 5.88C39.7199 5.60105 39.389 5.37974 39.0248 5.22875C38.6606 5.07775 38.2702 5.00002 37.876 5H13.876C12.5499 5 11.2781 5.52678 10.3404 6.46447C9.40276 7.40215 8.87598 8.67392 8.87598 10V54C8.87598 55.3261 9.40276 56.5979 10.3404 57.5355C11.2781 58.4732 12.5499 59 13.876 59H49.876C51.2021 59 52.4738 58.4732 53.4115 57.5355C54.3492 56.5979 54.876 55.3261 54.876 54V22C54.8759 21.205 54.5603 20.4425 53.9985 19.88ZM39.876 14.25L45.626 20H39.876V14.25ZM14.876 53V11H33.876V23C33.876 23.7956 34.192 24.5587 34.7547 25.1213C35.3173 25.6839 36.0803 26 36.876 26H48.876V53H14.876Z" fill="black"/>
</svg>
