<svg width="64" height="63" viewBox="0 0 64 63" fill="none" xmlns="http://www.w3.org/2000/svg">
<path d="M52.3704 10H11.6296C10.4018 10 9.22421 10.4924 8.35599 11.369C7.48776 12.2455 7 13.4343 7 14.6739V50.196C7.00006 50.674 7.12117 51.1441 7.35183 51.5617C7.5825 51.9792 7.91506 52.3302 8.31793 52.5815C8.7208 52.8327 9.1806 52.9758 9.65367 52.9972C10.1267 53.0186 10.5974 52.9175 11.0208 52.7035L17.1852 49.593L23.3495 52.7035C23.7355 52.8985 24.1611 53 24.5926 53C25.0241 53 25.4497 52.8985 25.8356 52.7035L32 49.593L38.1644 52.7035C38.5503 52.8985 38.9759 53 39.4074 53C39.8389 53 40.2645 52.8985 40.6505 52.7035L46.8148 49.593L52.9792 52.7035C53.4026 52.9175 53.8733 53.0186 54.3463 52.9972C54.8194 52.9758 55.2792 52.8327 55.6821 52.5815C56.0849 52.3302 56.4175 51.9792 56.6482 51.5617C56.8788 51.1441 56.9999 50.674 57 50.196V14.6739C57 13.4343 56.5122 12.2455 55.644 11.369C54.7758 10.4924 53.5982 10 52.3704 10ZM51.4444 45.6576L48.0579 43.9492C47.672 43.7543 47.2463 43.6528 46.8148 43.6528C46.3833 43.6528 45.9577 43.7543 45.5718 43.9492L39.4074 47.0597L33.2431 43.9492C32.8571 43.7543 32.4315 43.6528 32 43.6528C31.5685 43.6528 31.1429 43.7543 30.7569 43.9492L24.5926 47.0597L18.4282 43.9492C18.0423 43.7543 17.6167 43.6528 17.1852 43.6528C16.7536 43.6528 16.328 43.7543 15.9421 43.9492L12.5556 45.6576V15.6087H51.4444V45.6576ZM24.4792 33.2552L28.0648 29.6306L24.4792 26.0059C24.2208 25.7451 24.0158 25.4354 23.876 25.0946C23.7361 24.7537 23.6642 24.3884 23.6642 24.0195C23.6642 23.2745 23.9573 22.5599 24.4792 22.0331C25.001 21.5062 25.7088 21.2103 26.4468 21.2103C27.1847 21.2103 27.8925 21.5062 28.4144 22.0331L32 25.6577L35.5903 22.0307C36.1121 21.5039 36.8199 21.2079 37.5579 21.2079C38.2959 21.2079 39.0036 21.5039 39.5255 22.0307C40.0473 22.5576 40.3405 23.2721 40.3405 24.0172C40.3405 24.7622 40.0473 25.4768 39.5255 26.0036L35.9352 29.6306L39.5278 33.2552C40.0496 33.7821 40.3428 34.4966 40.3428 35.2417C40.3428 35.9867 40.0496 36.7013 39.5278 37.2281C39.0059 37.7549 38.2982 38.0509 37.5602 38.0509C36.8222 38.0509 36.1144 37.7549 35.5926 37.2281L32 33.6034L28.4097 37.2304C27.8879 37.7573 27.1801 38.0532 26.4421 38.0532C25.7041 38.0532 24.9964 37.7573 24.4745 37.2304C23.9527 36.7036 23.6595 35.9891 23.6595 35.244C23.6595 34.4989 23.9527 33.7844 24.4745 33.2576L24.4792 33.2552Z" fill="#090C0D"/>
</svg>
