<svg width="64" height="64" viewBox="0 0 64 64" fill="none" xmlns="http://www.w3.org/2000/svg">
<path d="M32 50.6667C42.3014 50.6667 50.6667 42.3014 50.6667 32C50.6667 21.6986 42.3014 13.3333 32 13.3333C21.6986 13.3333 13.3333 21.6986 13.3333 32C13.3333 42.3014 21.6986 50.6667 32 50.6667ZM39.381 29.0093C40.8534 29.0095 42.0471 30.2032 42.0474 31.6757C42.0474 33.1483 40.8536 34.3418 39.381 34.3421L31.9717 34.3433C30.4992 34.3433 29.3058 33.1493 29.3054 31.6769L29.3054 21.9717C29.3054 20.4989 30.499 19.3053 31.9717 19.3053C33.4445 19.3053 34.6381 20.4989 34.6381 21.9717L34.6381 29.0081L39.381 29.0093ZM32 56C18.753 56 8 45.2469 8 32C8 18.7531 18.7531 8 32 8C45.2469 8 56 18.7531 56 32C56 45.2469 45.2469 56 32 56Z" fill="#090C0D"/>
</svg>
