<svg width="64" height="64" viewBox="0 0 64 64" fill="none" xmlns="http://www.w3.org/2000/svg">
<path d="M60.4228 22.0367L33.2353 7.03674C32.8191 6.80693 32.3514 6.6864 31.876 6.6864C31.4005 6.6864 30.9328 6.80693 30.5166 7.03674L3.32908 22.0367C2.88948 22.28 2.52306 22.6365 2.2679 23.0693C2.01275 23.5021 1.87817 23.9953 1.87817 24.4977C1.87817 25.0001 2.01275 25.4933 2.2679 25.9261C2.52306 26.3589 2.88948 26.7154 3.32908 26.9586L8.43845 29.7711V40.9649C8.4366 42.1172 8.86159 43.2293 9.63142 44.0867C12.8049 47.6328 19.9228 53.5625 31.876 53.5625C35.0504 53.5796 38.2098 53.1254 41.251 52.2149V58.25C41.251 58.9959 41.5473 59.7113 42.0747 60.2388C42.6022 60.7662 43.3175 61.0625 44.0635 61.0625C44.8094 61.0625 45.5247 60.7662 46.0522 60.2388C46.5796 59.7113 46.876 58.9959 46.876 58.25V49.8406C49.5923 48.3402 52.0405 46.399 54.1205 44.0961C54.8903 43.2387 55.3153 42.1265 55.3135 40.9742V29.7805L60.4228 26.968C60.8624 26.7248 61.2288 26.3682 61.484 25.9355C61.7392 25.5027 61.8737 25.0094 61.8737 24.507C61.8737 24.0047 61.7392 23.5114 61.484 23.0786C61.2288 22.6459 60.8624 22.2893 60.4228 22.0461V22.0367ZM31.876 12.7133L53.2416 24.5L45.4697 28.7891C45.4551 28.7805 45.441 28.7711 45.4275 28.761L33.24 22.0367C32.5893 21.7004 31.8331 21.6312 31.1322 21.8439C30.4313 22.0565 29.841 22.5342 29.4868 23.1754C29.1326 23.8165 29.0426 24.5705 29.2358 25.2771C29.429 25.9836 29.8902 26.5869 30.5213 26.9586L39.6619 31.9953L31.876 36.2891L10.5103 24.5L31.876 12.7133ZM31.876 47.9375C22.4025 47.9375 16.7236 43.468 14.0635 40.6086V32.8742L30.5166 41.9539C30.9328 42.1837 31.4005 42.3043 31.876 42.3043C32.3514 42.3043 32.8191 42.1837 33.2353 41.9539L41.251 37.5406V46.2664C38.2562 47.3983 35.0774 47.965 31.876 47.9375ZM49.6885 40.6086C48.826 41.5329 47.885 42.3806 46.876 43.1422V34.4352L49.6885 32.8836V40.6086Z" fill="black"/>
</svg>
