<svg width="64" height="64" viewBox="0 0 64 64" fill="none" xmlns="http://www.w3.org/2000/svg">
<path d="M51.876 7H46.876V6C46.876 5.20435 46.5599 4.44129 45.9973 3.87868C45.4347 3.31607 44.6716 3 43.876 3C43.0803 3 42.3173 3.31607 41.7547 3.87868C41.192 4.44129 40.876 5.20435 40.876 6V7H22.876V6C22.876 5.20435 22.5599 4.44129 21.9973 3.87868C21.4347 3.31607 20.6716 3 19.876 3C19.0803 3 18.3173 3.31607 17.7547 3.87868C17.192 4.44129 16.876 5.20435 16.876 6V7H11.876C10.5499 7 9.27812 7.52678 8.34044 8.46447C7.40276 9.40215 6.87598 10.6739 6.87598 12V52C6.87598 53.3261 7.40276 54.5979 8.34044 55.5355C9.27812 56.4732 10.5499 57 11.876 57H51.876C53.2021 57 54.4738 56.4732 55.4115 55.5355C56.3492 54.5979 56.876 53.3261 56.876 52V12C56.876 10.6739 56.3492 9.40215 55.4115 8.46447C54.4738 7.52678 53.2021 7 51.876 7ZM16.876 13C16.876 13.7956 17.192 14.5587 17.7547 15.1213C18.3173 15.6839 19.0803 16 19.876 16C20.6716 16 21.4347 15.6839 21.9973 15.1213C22.5599 14.5587 22.876 13.7956 22.876 13H40.876C40.876 13.7956 41.192 14.5587 41.7547 15.1213C42.3173 15.6839 43.0803 16 43.876 16C44.6716 16 45.4347 15.6839 45.9973 15.1213C46.5599 14.5587 46.876 13.7956 46.876 13H50.876V19H12.876V13H16.876ZM12.876 51V25H50.876V51H12.876Z" fill="black"/>
</svg>
