<svg width="64" height="64" viewBox="0 0 64 64" fill="none" xmlns="http://www.w3.org/2000/svg">
<path d="M6.07279 30.4071C6.38774 30.6441 6.74631 30.8168 7.12801 30.9152C7.50971 31.0135 7.90706 31.0357 8.29734 30.9805C8.68763 30.9252 9.0632 30.7936 9.40258 30.5931C9.74197 30.3926 10.0385 30.1272 10.2753 29.8121C11.393 28.3213 12.8425 27.1112 14.509 26.2778C16.1756 25.4443 18.0132 25.0104 19.8765 25.0104C21.7398 25.0104 23.5775 25.4443 25.244 26.2778C26.9105 27.1112 28.3601 28.3213 29.4778 29.8121C29.9556 30.4482 30.6664 30.8685 31.4541 30.9806C32.2417 31.0926 33.0416 30.8873 33.6778 30.4096C33.9027 30.2388 34.103 30.0378 34.2728 29.8121C35.3905 28.3213 36.84 27.1112 38.5065 26.2778C40.1731 25.4443 42.0107 25.0104 43.874 25.0104C45.7373 25.0104 47.575 25.4443 49.2415 26.2778C50.908 27.1112 52.3576 28.3213 53.4753 29.8121C53.7097 30.1328 54.0054 30.4037 54.3454 30.6092C54.6853 30.8147 55.0627 30.9506 55.4556 31.0091C55.8485 31.0676 56.2491 31.0474 56.6341 30.9499C57.0192 30.8523 57.381 30.6793 57.6987 30.4407C58.0163 30.2022 58.2834 29.903 58.4845 29.5604C58.6856 29.2179 58.8166 28.8388 58.87 28.4452C58.9234 28.0515 58.8981 27.6512 58.7956 27.2675C58.6931 26.8837 58.5154 26.5241 58.2728 26.2096C56.6039 23.9751 54.4386 22.1591 51.9478 20.9046C53.0378 19.4138 53.6936 17.6503 53.8427 15.8095C53.9917 13.9688 53.6281 12.1227 52.7922 10.476C51.9562 8.82922 50.6806 7.44614 49.1067 6.48002C47.5328 5.5139 45.7221 5.0025 43.8753 5.0025C42.0285 5.0025 40.2178 5.5139 38.6439 6.48002C37.07 7.44614 35.7944 8.82922 34.9584 10.476C34.1225 12.1227 33.7589 13.9688 33.9079 15.8095C34.0569 17.6503 34.7128 19.4138 35.8028 20.9046C34.3792 21.6185 33.0582 22.5208 31.8753 23.5871C30.6925 22.5199 29.3715 21.6168 27.9478 20.9021C29.0378 19.4113 29.6936 17.6478 29.8427 15.807C29.9917 13.9663 29.6281 12.1202 28.7922 10.4735C27.9562 8.82672 26.6806 7.44364 25.1067 6.47752C23.5328 5.5114 21.7221 5 19.8753 5C18.0285 5 16.2178 5.5114 14.6439 6.47752C13.07 7.44364 11.7944 8.82672 10.9584 10.4735C10.1225 12.1202 9.75887 13.9663 9.90791 15.807C10.0569 17.6478 10.7128 19.4113 11.8028 20.9021C9.31195 22.1566 7.14668 23.9726 5.47779 26.2071C4.99987 26.843 4.79407 27.6427 4.90565 28.4303C5.01723 29.2179 5.43705 29.929 6.07279 30.4071ZM43.8753 11.0096C44.6664 11.0096 45.4398 11.2442 46.0976 11.6837C46.7554 12.1232 47.2681 12.748 47.5708 13.4789C47.8736 14.2098 47.9528 15.014 47.7984 15.79C47.6441 16.5659 47.2631 17.2786 46.7037 17.838C46.1443 18.3974 45.4316 18.7784 44.6557 18.9327C43.8797 19.0871 43.0755 19.0079 42.3446 18.7051C41.6137 18.4024 40.9889 17.8897 40.5494 17.2319C40.1099 16.5741 39.8753 15.8007 39.8753 15.0096C39.8753 13.9487 40.2967 12.9313 41.0469 12.1812C41.797 11.431 42.8144 11.0096 43.8753 11.0096ZM19.8753 11.0096C20.6664 11.0096 21.4398 11.2442 22.0976 11.6837C22.7554 12.1232 23.2681 12.748 23.5708 13.4789C23.8736 14.2098 23.9528 15.014 23.7984 15.79C23.6441 16.5659 23.2631 17.2786 22.7037 17.838C22.1443 18.3974 21.4316 18.7784 20.6557 18.9327C19.8797 19.0871 19.0755 19.0079 18.3446 18.7051C17.6137 18.4024 16.9889 17.8897 16.5494 17.2319C16.1099 16.5741 15.8753 15.8007 15.8753 15.0096C15.8753 13.9487 16.2967 12.9313 17.0469 12.1812C17.797 11.431 18.8144 11.0096 19.8753 11.0096ZM51.9478 48.9021C53.0378 47.4113 53.6936 45.6478 53.8427 43.807C53.9917 41.9663 53.6281 40.1202 52.7922 38.4735C51.9562 36.8267 50.6806 35.4436 49.1067 34.4775C47.5328 33.5114 45.7221 33 43.8753 33C42.0285 33 40.2178 33.5114 38.6439 34.4775C37.07 35.4436 35.7944 36.8267 34.9584 38.4735C34.1225 40.1202 33.7589 41.9663 33.9079 43.807C34.0569 45.6478 34.7128 47.4113 35.8028 48.9021C34.3797 49.6168 33.0588 50.519 31.8753 51.5846C30.6918 50.519 29.3709 49.6168 27.9478 48.9021C29.0378 47.4113 29.6936 45.6478 29.8427 43.807C29.9917 41.9663 29.6281 40.1202 28.7922 38.4735C27.9562 36.8267 26.6806 35.4436 25.1067 34.4775C23.5328 33.5114 21.7221 33 19.8753 33C18.0285 33 16.2178 33.5114 14.6439 34.4775C13.07 35.4436 11.7944 36.8267 10.9584 38.4735C10.1225 40.1202 9.75887 41.9663 9.90791 43.807C10.0569 45.6478 10.7128 47.4113 11.8028 48.9021C9.31195 50.1566 7.14668 51.9726 5.47779 54.2071C4.99974 54.8433 4.79399 55.6433 4.90581 56.4312C5.01763 57.2191 5.43785 57.9303 6.07404 58.4083C6.71023 58.8864 7.51027 59.0921 8.29815 58.9803C9.08604 58.8685 9.79724 58.4483 10.2753 57.8121C11.393 56.3213 12.8425 55.1112 14.509 54.2778C16.1756 53.4443 18.0132 53.0104 19.8765 53.0104C21.7398 53.0104 23.5775 53.4443 25.244 54.2778C26.9105 55.1112 28.3601 56.3213 29.4778 57.8121C29.9556 58.4482 30.6664 58.8685 31.4541 58.9806C32.2417 59.0926 33.0416 58.8873 33.6778 58.4096C33.9027 58.2388 34.103 58.0378 34.2728 57.8121C35.3905 56.3213 36.84 55.1112 38.5065 54.2778C40.1731 53.4443 42.0107 53.0104 43.874 53.0104C45.7373 53.0104 47.575 53.4443 49.2415 54.2778C50.908 55.1112 52.3576 56.3213 53.4753 57.8121C53.7097 58.1328 54.0054 58.4037 54.3454 58.6092C54.6853 58.8147 55.0627 58.9506 55.4556 59.0091C55.8485 59.0676 56.2491 59.0474 56.6341 58.9499C57.0192 58.8523 57.381 58.6793 57.6987 58.4407C58.0163 58.2022 58.2834 57.903 58.4845 57.5604C58.6856 57.2179 58.8166 56.8388 58.87 56.4452C58.9234 56.0515 58.8981 55.6512 58.7956 55.2675C58.6931 54.8837 58.5154 54.5241 58.2728 54.2096C56.6048 51.9737 54.4393 50.1566 51.9478 48.9021ZM19.8753 39.0096C20.6664 39.0096 21.4398 39.2442 22.0976 39.6837C22.7554 40.1232 23.2681 40.748 23.5708 41.4789C23.8736 42.2098 23.9528 43.014 23.7984 43.79C23.6441 44.5659 23.2631 45.2786 22.7037 45.838C22.1443 46.3974 21.4316 46.7784 20.6557 46.9327C19.8797 47.0871 19.0755 47.0079 18.3446 46.7051C17.6137 46.4024 16.9889 45.8897 16.5494 45.2319C16.1099 44.5741 15.8753 43.8007 15.8753 43.0096C15.8753 41.9487 16.2967 40.9313 17.0469 40.1812C17.797 39.431 18.8144 39.0096 19.8753 39.0096ZM43.8753 39.0096C44.6664 39.0096 45.4398 39.2442 46.0976 39.6837C46.7554 40.1232 47.2681 40.748 47.5708 41.4789C47.8736 42.2098 47.9528 43.014 47.7984 43.79C47.6441 44.5659 47.2631 45.2786 46.7037 45.838C46.1443 46.3974 45.4316 46.7784 44.6557 46.9327C43.8797 47.0871 43.0755 47.0079 42.3446 46.7051C41.6137 46.4024 40.9889 45.8897 40.5494 45.2319C40.1099 44.5741 39.8753 43.8007 39.8753 43.0096C39.8753 41.9487 40.2967 40.9313 41.0469 40.1812C41.797 39.431 42.8144 39.0096 43.8753 39.0096Z" fill="black"/>
</svg>
