<svg width="64" height="64" viewBox="0 0 64 64" fill="none" xmlns="http://www.w3.org/2000/svg">
<path d="M32.3311 4C46.3889 4.0002 57.7852 15.3972 57.7852 29.4551V57.4551C57.7849 58.8607 56.6449 60 55.2393 60C53.8338 59.9998 52.6946 58.8605 52.6943 57.4551V29.4551C52.6943 18.2088 43.5773 9.09199 32.3311 9.0918C21.0846 9.0918 11.9678 18.2086 11.9678 29.4551V57.4551C11.9675 58.8606 10.8275 59.9999 9.42188 60C8.01622 60 6.87623 58.8607 6.87598 57.4551V29.4551C6.87598 15.397 18.273 4 32.3311 4ZM45.0586 28.1816C46.4641 28.182 47.6034 29.322 47.6035 30.7275C47.6035 38.0661 46.121 44.836 43.6064 49.8652C41.168 54.742 37.328 58.7275 32.3301 58.7275C27.3324 58.7272 23.4931 54.7418 21.0547 49.8652C18.5401 44.8361 17.0576 38.0661 17.0576 30.7275C17.0577 29.3218 18.1978 28.1817 19.6035 28.1816H45.0586ZM22.2158 33.2734C22.5123 38.9462 23.784 43.9419 25.6074 47.5889C27.775 51.924 30.2993 53.6363 32.3301 53.6367C34.3609 53.6367 36.8859 51.9243 39.0537 47.5889C40.8772 43.9419 42.1498 38.9462 42.4463 33.2734H22.2158Z" fill="black"/>
</svg>
