<svg width="64" height="64" viewBox="0 0 64 64" fill="none" xmlns="http://www.w3.org/2000/svg">
<path d="M59.876 52.0014H56.876V37.0014C57.5167 37.2266 58.2149 37.2276 58.8563 37.0045C59.4978 36.7813 60.0445 36.3471 60.4071 35.7728C60.7697 35.1986 60.9268 34.5183 60.8525 33.8432C60.7783 33.1681 60.4772 32.5382 59.9985 32.0564L35.411 7.46393C34.4733 6.52658 33.2018 6 31.876 6C30.5502 6 29.2786 6.52658 28.341 7.46393L3.75348 32.0514C3.27185 32.5326 2.9682 33.1632 2.89241 33.8398C2.81662 34.5164 2.97319 35.1986 3.33641 35.7744C3.69963 36.3502 4.24789 36.7853 4.89112 37.0083C5.53435 37.2313 6.2343 37.2289 6.87598 37.0014V52.0014H3.87598C3.08033 52.0014 2.31727 52.3175 1.75466 52.8801C1.19205 53.4427 0.875977 54.2058 0.875977 55.0014C0.875977 55.7971 1.19205 56.5601 1.75466 57.1227C2.31727 57.6854 3.08033 58.0014 3.87598 58.0014H59.876C60.6716 58.0014 61.4347 57.6854 61.9973 57.1227C62.5599 56.5601 62.876 55.7971 62.876 55.0014C62.876 54.2058 62.5599 53.4427 61.9973 52.8801C61.4347 52.3175 60.6716 52.0014 59.876 52.0014ZM12.876 31.4139L31.876 12.4139L50.876 31.4139V52.0014H40.876V39.0014C40.876 38.2058 40.5599 37.4427 39.9973 36.8801C39.4347 36.3175 38.6716 36.0014 37.876 36.0014H25.876C25.0803 36.0014 24.3173 36.3175 23.7547 36.8801C23.192 37.4427 22.876 38.2058 22.876 39.0014V52.0014H12.876V31.4139ZM34.876 52.0014H28.876V42.0014H34.876V52.0014Z" fill="black"/>
</svg>
