<svg width="64" height="64" viewBox="0 0 64 64" fill="none" xmlns="http://www.w3.org/2000/svg">
<path d="M57.7693 25.7462C57.4914 24.8921 56.9654 24.1393 56.2577 23.5831C55.55 23.0269 54.6925 22.6923 53.7938 22.6217L41.1119 21.6017L36.2176 9.81574C35.8736 8.98275 35.2888 8.27035 34.5375 7.76901C33.7861 7.26767 32.9022 7 31.9978 7C31.0934 7 30.2094 7.26767 29.458 7.76901C28.7067 8.27035 28.1219 8.98275 27.7779 9.81574L22.8881 21.604L10.2062 22.6217C9.3058 22.6956 8.44745 23.0329 7.73899 23.5913C7.03054 24.1496 6.50359 24.904 6.22437 25.7597C5.94515 26.6153 5.92611 27.5341 6.16965 28.4005C6.41319 29.2669 6.90845 30.0423 7.59317 30.6293L17.2698 38.9404L14.3117 51.3714C14.096 52.2478 14.147 53.1684 14.4583 54.0159C14.7697 54.8633 15.3272 55.5993 16.06 56.1302C16.7927 56.661 17.6675 56.9627 18.573 56.9968C19.4785 57.0308 20.3737 56.7958 21.1445 56.3215L31.9978 49.6686L42.8509 56.3215C43.6216 56.7926 44.5153 57.0254 45.4189 56.9904C46.3225 56.9553 47.1954 56.6541 47.9269 56.1248C48.6585 55.5955 49.216 54.862 49.5287 54.017C49.8415 53.172 49.8954 52.2536 49.6838 51.3781L46.7257 38.9471L56.4023 30.636C57.0911 30.0476 57.5889 29.2686 57.8322 28.398C58.0756 27.5274 58.0538 26.6044 57.7693 25.7462ZM41.977 35.9454C41.6038 36.2657 41.3262 36.682 41.1745 37.1488C41.0227 37.6156 41.0026 38.1149 41.1164 38.5923L44.0051 50.7421L33.4073 44.252C32.9835 43.9922 32.4955 43.8547 31.9978 43.8547C31.5 43.8547 31.012 43.9922 30.5882 44.252L19.9904 50.7421L22.8791 38.6012C22.9929 38.1238 22.9728 37.6245 22.821 37.1577C22.6693 36.691 22.3917 36.2747 22.0185 35.9543L12.5458 27.8083L24.961 26.8107C25.455 26.7712 25.9285 26.5964 26.3291 26.3058C26.7297 26.0151 27.0419 25.6199 27.2311 25.1637L31.9978 13.67L36.7644 25.1637C36.9536 25.6199 37.2658 26.0151 37.6664 26.3058C38.067 26.5964 38.5405 26.7712 39.0345 26.8107L51.4497 27.8083L41.977 35.9454Z" fill="#090C0D"/>
</svg>
