<svg width="65" height="64" viewBox="0 0 65 64" fill="none" xmlns="http://www.w3.org/2000/svg">
<path d="M32.0611 34.1611C43.1345 34.1611 52.1241 43.1488 52.1241 54.2222C52.1241 55.7561 50.8801 56.9997 49.3463 57H14.7778C13.2437 57 12 55.7563 12 54.2222C12 43.149 20.988 34.1614 32.0611 34.1611ZM32.0611 39.7167C25.0063 39.7169 19.123 44.7663 17.825 51.4444H46.299C45.0011 44.766 39.1162 39.7167 32.0611 39.7167ZM39.1611 19.6537C39.1608 15.7371 35.9778 12.5556 32.0611 12.5556C28.1447 12.5559 24.9633 15.7373 24.963 19.6537C24.963 23.5704 28.1445 26.7534 32.0611 26.7537C35.978 26.7537 39.1611 23.5706 39.1611 19.6537ZM44.7167 19.6537C44.7167 26.6389 39.0463 32.3092 32.0611 32.3092C25.0763 32.3089 19.4074 26.6387 19.4074 19.6537C19.4077 12.6691 25.0765 7.00033 32.0611 7C39.0461 7 44.7163 12.6689 44.7167 19.6537Z" fill="#090C0D"/>
</svg>
