<svg width="64" height="63" viewBox="0 0 64 63" fill="none" xmlns="http://www.w3.org/2000/svg">
<path d="M43.2069 9C38.704 9 34.7076 10.7774 32 13.8324C29.2924 10.7774 25.296 9 20.7931 9C16.8712 9.00475 13.1113 10.5648 10.338 13.338C7.56482 16.1113 6.00475 19.8712 6 23.7931C6 40.0072 29.716 52.9624 30.7247 53.5071C31.1166 53.7182 31.5548 53.8287 32 53.8287C32.4452 53.8287 32.8834 53.7182 33.2753 53.5071C34.284 52.9624 58 40.0072 58 23.7931C57.9953 19.8712 56.4352 16.1113 53.662 13.338C50.8887 10.5648 47.1288 9.00475 43.2069 9ZM41.9764 40.9083C38.8547 43.5572 35.5177 45.9413 32 48.0359C28.4823 45.9413 25.1453 43.5572 22.0236 40.9083C17.1666 36.7416 11.3793 30.3872 11.3793 23.7931C11.3793 21.2964 12.3711 18.902 14.1365 17.1365C15.902 15.3711 18.2964 14.3793 20.7931 14.3793C24.7828 14.3793 28.1224 16.4862 29.5098 19.8797C29.7118 20.3743 30.0565 20.7977 30.5 21.0957C30.9435 21.3937 31.4657 21.5528 32 21.5528C32.5343 21.5528 33.0565 21.3937 33.5 21.0957C33.9435 20.7977 34.2882 20.3743 34.4902 19.8797C35.8776 16.4862 39.2172 14.3793 43.2069 14.3793C45.7036 14.3793 48.098 15.3711 49.8635 17.1365C51.6289 18.902 52.6207 21.2964 52.6207 23.7931C52.6207 30.3872 46.8334 36.7416 41.9764 40.9083Z" fill="#090C0D"/>
</svg>
