<svg width="63" height="63" viewBox="0 0 63 63" fill="none" xmlns="http://www.w3.org/2000/svg">
<path d="M52.8633 10.1365C52.3758 9.64889 51.767 9.30002 51.0998 9.12583C50.4326 8.95164 49.731 8.95841 49.0672 9.14546L49.0245 9.15904L11.7988 20.4425C11.0438 20.6614 10.3732 21.1045 9.87571 21.713C9.37823 22.3216 9.07739 23.0669 9.01303 23.8502C8.94867 24.6335 9.12383 25.4179 9.51531 26.0994C9.9068 26.781 10.4961 27.3276 11.2052 27.6668L27.4254 35.5698L35.3222 51.7929C35.6336 52.455 36.1276 53.0145 36.7461 53.4054C37.3646 53.7964 38.0819 54.0027 38.8137 54C38.9243 54 39.0368 54 39.1493 53.9864C39.9348 53.9259 40.6829 53.6256 41.2921 53.1261C41.9013 52.6266 42.3423 51.952 42.5555 51.1937L53.8409 13.9746C53.8466 13.9607 53.8512 13.9465 53.8545 13.9319C54.0416 13.2683 54.0484 12.5668 53.8741 11.8997C53.6999 11.2326 53.351 10.624 52.8633 10.1365ZM38.6585 47.9956L31.9916 34.2956L40.9144 25.3841C41.131 25.1676 41.3027 24.9106 41.4199 24.6277C41.5371 24.3449 41.5974 24.0417 41.5974 23.7356C41.5974 23.4294 41.5371 23.1263 41.4199 22.8434C41.3027 22.5606 41.131 22.3036 40.9144 22.0871C40.6979 21.8706 40.4409 21.6989 40.158 21.5817C39.8751 21.4646 39.5719 21.4043 39.2657 21.4043C38.9595 21.4043 38.6562 21.4646 38.3733 21.5817C38.0904 21.6989 37.8334 21.8706 37.6169 22.0871L28.694 31.0084L14.9975 24.3387L48.9566 14.0425L38.6585 47.9956Z" fill="#090C0D"/>
</svg>
