<svg width="64" height="64" viewBox="0 0 64 64" fill="none" xmlns="http://www.w3.org/2000/svg">
<path d="M32 8C38.3652 8 44.4698 10.5284 48.9707 15.0293C53.4716 19.5302 56 25.6348 56 32C56 38.3652 53.4716 44.4698 48.9707 48.9707C44.4698 53.4716 38.3652 56 32 56H12.2598C11.13 55.9999 10.0469 55.5508 9.24805 54.752C8.4492 53.9531 8.00006 52.87 8 51.7402V31.999L8.00781 31.4033C8.16696 25.2566 10.6786 19.3957 15.0371 15.0371C19.5363 10.538 25.6363 8.0071 31.999 8H32ZM35.7539 13.1299C32.0217 12.3875 28.1524 12.7684 24.6367 14.2246C21.1214 15.6808 18.117 18.1469 16.0029 21.3105C13.8888 24.4745 12.7598 28.1947 12.7598 32V51.2402H32C35.8053 51.2402 39.5254 50.1112 42.6895 47.9971C45.8531 45.883 48.3192 42.8786 49.7754 39.3633C51.2316 35.8476 51.6125 31.9783 50.8701 28.2461C50.1277 24.514 48.2952 21.0862 45.6045 18.3955C42.9138 15.7048 39.486 13.8723 35.7539 13.1299ZM21.6602 29.6201C22.5406 29.6202 23.3852 29.9702 24.0078 30.5928C24.6303 31.2154 24.9805 32.06 24.9805 32.9404C24.9804 33.5968 24.7854 34.2384 24.4209 34.7842C24.0561 35.3301 23.5372 35.7555 22.9307 36.0068C22.3241 36.2581 21.6566 36.3243 21.0127 36.1963C20.3687 36.0682 19.7768 35.7514 19.3125 35.2871C18.8483 34.8228 18.5314 34.2318 18.4033 33.5879C18.2752 32.944 18.3416 32.2765 18.5928 31.6699C18.844 31.0633 19.2695 30.5445 19.8154 30.1797C20.3614 29.8149 21.0035 29.6201 21.6602 29.6201ZM32 29.6201C32.8805 29.6201 33.725 29.9702 34.3477 30.5928C34.9701 31.2154 35.3203 32.06 35.3203 32.9404C35.3202 33.5968 35.1253 34.2384 34.7607 34.7842C34.396 35.3301 33.8771 35.7555 33.2705 36.0068C32.6639 36.2581 31.9965 36.3243 31.3525 36.1963C30.7085 36.0682 30.1167 35.7514 29.6523 35.2871C29.1882 34.8229 28.8722 34.2317 28.7441 33.5879C28.6161 32.944 28.6815 32.2765 28.9326 31.6699C29.1839 31.0634 29.6094 30.5445 30.1553 30.1797C30.7012 29.8149 31.3434 29.6201 32 29.6201ZM42.3398 29.6201C43.2204 29.6201 44.0649 29.9702 44.6875 30.5928C45.31 31.2154 45.6602 32.06 45.6602 32.9404C45.6601 33.5968 45.4652 34.2384 45.1006 34.7842C44.7358 35.3301 44.217 35.7556 43.6104 36.0068C43.0037 36.2581 42.3364 36.3244 41.6924 36.1963C41.0484 36.0682 40.4565 35.7514 39.9922 35.2871C39.5281 34.8229 39.2121 34.2317 39.084 33.5879C38.9559 32.944 39.0213 32.2764 39.2725 31.6699C39.5237 31.0634 39.9493 30.5445 40.4951 30.1797C41.041 29.8149 41.6833 29.6201 42.3398 29.6201Z" fill="#090C0D"/>
</svg>
