<svg width="64" height="64" viewBox="0 0 64 64" fill="none" xmlns="http://www.w3.org/2000/svg">
<path d="M58.1288 46.3307L37.7755 11.2845C37.186 10.2848 36.3427 9.45566 35.3297 8.87943C34.3166 8.3032 33.1691 8 32.0012 8C30.8332 8 29.6857 8.3032 28.6726 8.87943C27.6596 9.45566 26.8164 10.2848 26.2268 11.2845L5.87351 46.3307C5.30148 47.3007 5 48.4042 5 49.5279C5 50.6516 5.30148 51.7551 5.87351 52.7252C6.45651 53.7298 7.29857 54.5625 8.31331 55.138C9.32804 55.7134 10.4789 56.0108 11.6478 55.9997H52.3545C53.5226 56.01 54.6725 55.7122 55.6864 55.1368C56.7002 54.5614 57.5416 53.7291 58.1242 52.7252C58.6969 51.7555 58.9992 50.6522 59 49.5285C59.0008 48.4048 58.7001 47.3011 58.1288 46.3307ZM53.2878 49.9537C53.1931 50.1136 53.0566 50.2452 52.8928 50.3346C52.7289 50.4239 52.5437 50.4677 52.3568 50.4614H11.6478C11.4609 50.4677 11.2758 50.4239 11.1119 50.3346C10.948 50.2452 10.8115 50.1136 10.7169 49.9537C10.6366 49.8242 10.5941 49.6753 10.5941 49.5233C10.5941 49.3713 10.6366 49.2224 10.7169 49.0929L31.0702 14.0467C31.171 13.8929 31.3089 13.7665 31.4715 13.679C31.6341 13.5915 31.8162 13.5457 32.0012 13.5457C32.1862 13.5457 32.3682 13.5915 32.5308 13.679C32.6934 13.7665 32.8314 13.8929 32.9321 14.0467L53.2831 49.0929C53.3641 49.2219 53.4074 49.3707 53.4082 49.5226C53.4091 49.6746 53.3674 49.8238 53.2878 49.9537ZM29.2083 34.7694V27.3849C29.2083 26.6505 29.5025 25.9461 30.0263 25.4268C30.5501 24.9075 31.2604 24.6157 32.0012 24.6157C32.7419 24.6157 33.4523 24.9075 33.976 25.4268C34.4998 25.9461 34.7941 26.6505 34.7941 27.3849V34.7694C34.7941 35.5038 34.4998 36.2082 33.976 36.7275C33.4523 37.2468 32.7419 37.5385 32.0012 37.5385C31.2604 37.5385 30.5501 37.2468 30.0263 36.7275C29.5025 36.2082 29.2083 35.5038 29.2083 34.7694ZM35.725 44C35.725 44.7302 35.5066 45.4441 35.0975 46.0512C34.6883 46.6584 34.1067 47.1317 33.4262 47.4111C32.7458 47.6906 31.997 47.7637 31.2747 47.6212C30.5523 47.4788 29.8888 47.1271 29.368 46.6107C28.8472 46.0944 28.4925 45.4365 28.3488 44.7203C28.2052 44.004 28.2789 43.2617 28.5608 42.587C28.8426 41.9123 29.3199 41.3357 29.9323 40.93C30.5447 40.5243 31.2647 40.3077 32.0012 40.3077C32.9888 40.3077 33.936 40.6967 34.6343 41.3891C35.3327 42.0816 35.725 43.0207 35.725 44Z" fill="#090C0D"/>
</svg>
