<svg width="64" height="64" viewBox="0 0 64 64" fill="none" xmlns="http://www.w3.org/2000/svg">
<path d="M50.6667 32C50.6667 21.6986 42.3014 13.3333 32 13.3333C21.6986 13.3333 13.3333 21.6986 13.3333 32C13.3333 42.3014 21.6986 50.6667 32 50.6667C42.3014 50.6667 50.6667 42.3014 50.6667 32ZM37.2257 25.3733C38.267 24.3323 39.9552 24.3323 40.9965 25.3733C42.0378 26.4146 42.0376 28.1027 40.9965 29.1441L31.5156 38.6267C30.4744 39.6679 28.7862 39.6676 27.7448 38.6267L23.0035 33.8854C21.9621 32.844 21.9621 31.156 23.0035 30.1146C24.0449 29.0732 25.7329 29.0732 26.7743 30.1146L29.6285 32.9688L37.2257 25.3733ZM56 32C56 45.2469 45.2469 56 32 56C18.7531 56 8 45.2469 8 32C8 18.7531 18.7531 8 32 8C45.2469 8 56 18.7531 56 32Z" fill="#090C0D"/>
</svg>
