<svg width="63" height="63" viewBox="0 0 63 63" fill="none" xmlns="http://www.w3.org/2000/svg">
<path d="M46.501 20C53.3301 20 58.876 25.3086 58.876 32C58.876 38.6022 53.3301 43.9777 46.501 43.9777C43.1781 43.9777 40.0843 42.7286 37.7468 40.4758L31.376 34.9888L24.8906 40.5874C22.6676 42.7509 19.551 44 16.251 44C9.42181 44 3.87598 38.6022 3.87598 32C3.87598 25.3978 9.42181 20 16.251 20C19.551 20 22.6676 21.2491 25.0051 23.5242L31.376 29.0112L37.8614 23.4126C40.0843 21.2491 43.201 20 46.501 20ZM21.751 37.3309L27.9385 32L21.8426 26.7584C20.2843 25.2416 18.3364 24.461 16.251 24.461C11.9656 24.461 8.45931 27.829 8.45931 32C8.45931 36.171 11.9656 39.539 16.251 39.539C18.3364 39.539 20.2843 38.7584 21.751 37.3309ZM41.001 26.6691L34.8135 32L40.9093 37.2416C42.4676 38.7584 44.4385 39.539 46.501 39.539C50.7864 39.539 54.2926 36.171 54.2926 32C54.2926 27.829 50.7864 24.461 46.501 24.461C44.4156 24.461 42.4676 25.2416 41.001 26.6691Z" fill="#FF981A"/>
</svg>
