<svg width="64" height="64" viewBox="0 0 64 64" fill="none" xmlns="http://www.w3.org/2000/svg">
<path d="M31.7 52C31.8667 52 32.0333 51.9583 32.2 51.875C32.3667 51.7917 32.4917 51.7083 32.575 51.625L53.075 31.125C53.575 30.625 53.9396 30.0625 54.1687 29.4375C54.3979 28.8125 54.5125 28.1875 54.5125 27.5625C54.5125 26.8958 54.3979 26.2604 54.1687 25.6562C53.9396 25.0521 53.575 24.5208 53.075 24.0625L42.45 13.4375C41.9917 12.9375 41.4604 12.5729 40.8562 12.3438C40.2521 12.1146 39.6167 12 38.95 12C38.325 12 37.7 12.1146 37.075 12.3438C36.45 12.5729 35.8875 12.9375 35.3875 13.4375L34.7 14.125L39.325 18.8125C39.95 19.3958 40.4083 20.0625 40.7 20.8125C40.9917 21.5625 41.1375 22.3542 41.1375 23.1875C41.1375 24.9375 40.5437 26.4062 39.3562 27.5938C38.1687 28.7812 36.7 29.375 34.95 29.375C34.1167 29.375 33.3146 29.2292 32.5437 28.9375C31.7729 28.6458 31.0958 28.2083 30.5125 27.625L25.825 23L14.8875 33.9375C14.7625 34.0625 14.6687 34.1979 14.6062 34.3438C14.5437 34.4896 14.5125 34.6458 14.5125 34.8125C14.5125 35.1458 14.6375 35.4479 14.8875 35.7188C15.1375 35.9896 15.4292 36.125 15.7625 36.125C15.9292 36.125 16.0958 36.0833 16.2625 36C16.4292 35.9167 16.5542 35.8333 16.6375 35.75L25.1375 27.25L28.6375 30.75L20.2 39.25C20.075 39.375 19.9812 39.5104 19.9187 39.6562C19.8562 39.8021 19.825 39.9583 19.825 40.125C19.825 40.4583 19.95 40.75 20.2 41C20.45 41.25 20.7417 41.375 21.075 41.375C21.2417 41.375 21.4083 41.3333 21.575 41.25C21.7417 41.1667 21.8667 41.0833 21.95 41L30.45 32.5625L33.95 36.0625L25.5125 44.5625C25.3875 44.6458 25.2937 44.7708 25.2312 44.9375C25.1687 45.1042 25.1375 45.2708 25.1375 45.4375C25.1375 45.7708 25.2625 46.0625 25.5125 46.3125C25.7625 46.5625 26.0542 46.6875 26.3875 46.6875C26.5542 46.6875 26.7104 46.6562 26.8562 46.5938C27.0021 46.5312 27.1375 46.4375 27.2625 46.3125L35.7625 37.875L39.2625 41.375L30.7625 49.875C30.6375 50 30.5437 50.1354 30.4812 50.2812C30.4187 50.4271 30.3875 50.5833 30.3875 50.75C30.3875 51.0833 30.5229 51.375 30.7937 51.625C31.0646 51.875 31.3667 52 31.7 52ZM31.6375 57C30.0958 57 28.7312 56.4896 27.5437 55.4688C26.3562 54.4479 25.6583 53.1667 25.45 51.625C24.0333 51.4167 22.8458 50.8333 21.8875 49.875C20.9292 48.9167 20.3458 47.7292 20.1375 46.3125C18.7208 46.1042 17.5437 45.5104 16.6062 44.5312C15.6687 43.5521 15.0958 42.375 14.8875 41C13.3042 40.7917 12.0125 40.1042 11.0125 38.9375C10.0125 37.7708 9.51249 36.3958 9.51249 34.8125C9.51249 33.9792 9.66874 33.1771 9.98124 32.4062C10.2937 31.6354 10.7417 30.9583 11.325 30.375L25.825 15.9375L34.0125 24.125C34.0958 24.25 34.2208 24.3438 34.3875 24.4062C34.5542 24.4688 34.7208 24.5 34.8875 24.5C35.2625 24.5 35.575 24.3854 35.825 24.1562C36.075 23.9271 36.2 23.625 36.2 23.25C36.2 23.0833 36.1687 22.9167 36.1062 22.75C36.0437 22.5833 35.95 22.4583 35.825 22.375L26.8875 13.4375C26.4292 12.9375 25.8979 12.5729 25.2937 12.3438C24.6896 12.1146 24.0542 12 23.3875 12C22.7625 12 22.1375 12.1146 21.5125 12.3438C20.8875 12.5729 20.325 12.9375 19.825 13.4375L11.0125 22.3125C10.6375 22.6875 10.325 23.125 10.075 23.625C9.82499 24.125 9.65832 24.625 9.57499 25.125C9.49165 25.625 9.49165 26.1354 9.57499 26.6562C9.65832 27.1771 9.82499 27.6667 10.075 28.125L6.44999 31.75C5.74165 30.7917 5.22082 29.7396 4.88749 28.5938C4.55415 27.4479 4.42915 26.2917 4.51249 25.125C4.59582 23.9583 4.88749 22.8229 5.38749 21.7188C5.88749 20.6146 6.57499 19.625 7.44999 18.75L16.2625 9.9375C17.2625 8.97917 18.3771 8.25 19.6062 7.75C20.8354 7.25 22.0958 7 23.3875 7C24.6792 7 25.9396 7.25 27.1687 7.75C28.3979 8.25 29.4917 8.97917 30.45 9.9375L31.1375 10.625L31.825 9.9375C32.825 8.97917 33.9396 8.25 35.1687 7.75C36.3979 7.25 37.6583 7 38.95 7C40.2417 7 41.5021 7.25 42.7312 7.75C43.9604 8.25 45.0542 8.97917 46.0125 9.9375L56.575 20.5C57.5333 21.4583 58.2625 22.5625 58.7625 23.8125C59.2625 25.0625 59.5125 26.3333 59.5125 27.625C59.5125 28.9167 59.2625 30.1771 58.7625 31.4062C58.2625 32.6354 57.5333 33.7292 56.575 34.6875L36.075 55.125C35.4917 55.7083 34.8146 56.1667 34.0437 56.5C33.2729 56.8333 32.4708 57 31.6375 57Z" fill="#FF981A"/>
</svg>
