<svg width="64" height="64" viewBox="0 0 64 64" fill="none" xmlns="http://www.w3.org/2000/svg">
<path d="M53.25 36.7922C51.8693 36.7922 50.75 35.6729 50.75 34.2922V20.5422L38.25 11.7922L25.75 20.5422V21.7922C25.75 23.1729 24.6307 24.2922 23.25 24.2922C21.8693 24.2922 20.75 23.1729 20.75 21.7922V18.7546C20.75 18.3075 20.9659 17.888 21.3297 17.6281L37.0875 6.37253C37.7829 5.87582 38.7171 5.87582 39.4125 6.37253L54.9125 17.444C55.4381 17.8194 55.75 18.4255 55.75 19.0714V34.2922C55.75 35.6729 54.6307 36.7922 53.25 36.7922ZM39.5 21.7922H42V19.2922H39.5V21.7922ZM34.5 21.7922H37V19.2922H34.5V21.7922ZM39.5 26.7922H42V24.2922H39.5V26.7922ZM34.5 26.7922H37V24.2922H34.5V26.7922ZM20.75 48.0422L33.054 51.4059C36.3655 52.3112 39.8668 52.2506 43.145 51.2314L53 48.1672C52.7917 47.7922 52.4896 47.4693 52.0938 47.1984C51.6979 46.9276 51.25 46.7922 50.75 46.7922H38.125C37 46.7922 36.1042 46.7505 35.4375 46.6672C34.7708 46.5839 34.0833 46.4172 33.375 46.1672L29.373 44.8332C28.3597 44.4954 27.7906 43.421 28.0806 42.3929L28.3685 41.3719C28.6784 40.2735 29.8431 39.6566 30.9259 40.0175L34 41.0422C34.7083 41.2505 35.5417 41.4172 36.5 41.5422C37.4583 41.6672 38.875 41.7505 40.75 41.7922C40.75 41.3339 40.6146 40.8964 40.3438 40.4797C40.0729 40.063 39.75 39.7922 39.375 39.6672L24.75 34.2922H20.75V48.0422ZM7.75 56.7922C6.64543 56.7922 5.75 55.8968 5.75 54.7922V31.2922C5.75 30.1876 6.64543 29.2922 7.75 29.2922H24.75C25.0417 29.2922 25.3333 29.3234 25.625 29.3859C25.9167 29.4484 26.1875 29.5214 26.4375 29.6047L41.125 35.0422C42.5 35.5422 43.6146 36.4172 44.4688 37.6672C45.3229 38.9172 45.75 40.2922 45.75 41.7922H50.75C52.8333 41.7922 54.6042 42.4797 56.0625 43.8547C57.5208 45.2297 58.25 47.0422 58.25 49.2922C58.25 50.7795 57.2834 52.0942 55.8638 52.5379L43.3262 56.4559C40.0128 57.4913 36.4708 57.5466 33.1268 56.615L20.75 53.1672V54.7922C20.75 55.8968 19.8546 56.7922 18.75 56.7922H7.75ZM10.75 51.7922H15.75V34.2922H10.75V51.7922Z" fill="#FF981A"/>
</svg>
