<svg width="118" height="37" viewBox="0 0 118 37" fill="none" xmlns="http://www.w3.org/2000/svg">
<path d="M0.352661 8.67649C0.352661 4.07937 4.07937 0.352661 8.67649 0.352661C13.2736 0.352661 17.0003 4.07937 17.0003 8.67649C17.0003 13.2736 13.2736 17.0003 8.67649 17.0003C4.07937 17.0003 0.352661 13.2736 0.352661 8.67649Z" fill="#FF981A"/>
<path d="M20.0011 8.67649C20.0011 4.07937 23.7278 0.352661 28.3249 0.352661C32.922 0.352661 36.6487 4.07937 36.6487 8.67649C36.6487 13.2736 32.922 17.0003 28.3249 17.0003C23.7278 17.0003 20.0011 13.2736 20.0011 8.67649Z" fill="#E7E7E7"/>
<path d="M0.352661 28.323C0.352661 23.7259 4.07937 19.9991 8.67649 19.9991C13.2736 19.9991 17.0003 23.7259 17.0003 28.323C17.0003 32.9201 13.2736 36.6468 8.67649 36.6468C4.07937 36.6468 0.352661 32.9201 0.352661 28.323Z" fill="#E7E7E7"/>
<path d="M20.0011 28.323C20.0011 23.7259 23.7278 19.9991 28.3249 19.9991C32.922 19.9991 36.6487 23.7259 36.6487 28.323C36.6487 32.9201 32.922 36.6468 28.3249 36.6468C23.7278 36.6468 20.0011 32.9201 20.0011 28.323Z" fill="#E7E7E7"/>
<path d="M101.5 21.7266C101.5 20.4974 101.677 19.362 102.031 18.3203C102.385 17.2682 102.901 16.3568 103.578 15.5859C104.245 14.8151 105.062 14.2109 106.031 13.7734C107 13.3359 108.104 13.1172 109.344 13.1172C110.583 13.1172 111.688 13.3359 112.656 13.7734C113.635 14.2109 114.464 14.8151 115.141 15.5859C115.807 16.3568 116.318 17.2682 116.672 18.3203C117.026 19.362 117.203 20.4974 117.203 21.7266V22.0547C117.203 23.2943 117.026 24.4349 116.672 25.4766C116.318 26.5182 115.807 27.4245 115.141 28.1953C114.474 28.9661 113.651 29.5703 112.672 30.0078C111.703 30.4453 110.604 30.6641 109.375 30.6641C108.135 30.6641 107.026 30.4453 106.047 30.0078C105.068 29.5703 104.245 28.9661 103.578 28.1953C102.901 27.4245 102.385 26.5182 102.031 25.4766C101.677 24.4349 101.5 23.2943 101.5 22.0547V21.7266ZM105.234 22.0547C105.234 22.8151 105.312 23.5339 105.469 24.2109C105.635 24.888 105.891 25.4818 106.234 25.9922C106.568 26.5026 106.995 26.9089 107.516 27.2109C108.036 27.5026 108.656 27.6484 109.375 27.6484C110.073 27.6484 110.682 27.5026 111.203 27.2109C111.724 26.9089 112.151 26.5026 112.484 25.9922C112.818 25.4818 113.062 24.888 113.219 24.2109C113.385 23.5339 113.469 22.8151 113.469 22.0547V21.7266C113.469 20.987 113.385 20.2786 113.219 19.6016C113.052 18.9245 112.807 18.3307 112.484 17.8203C112.141 17.3099 111.708 16.9036 111.188 16.6016C110.677 16.2995 110.062 16.1484 109.344 16.1484C108.635 16.1484 108.021 16.2995 107.5 16.6016C106.99 16.9036 106.568 17.3099 106.234 17.8203C105.891 18.3307 105.635 18.9245 105.469 19.6016C105.312 20.2786 105.234 20.987 105.234 21.7266V22.0547Z" fill="#090C0D"/>
<path d="M88.7812 22.9766L86.75 24.8984V30.3359H83V6.33594H86.75V20.4609L88.2969 18.7422L93.3438 13.4297H97.8438L91.2656 20.4766L98.7969 30.3359H94.1719L88.7812 22.9766Z" fill="#090C0D"/>
<path d="M63.75 30.3359V13.4297H67.125L67.3594 15.8359C67.5885 15.513 67.8385 15.2161 68.1094 14.9453C68.3906 14.6641 68.6875 14.4141 69 14.1953C69.5 13.8516 70.0469 13.5859 70.6406 13.3984C71.2344 13.2109 71.8594 13.1172 72.5156 13.1172C73.3802 13.1172 74.1719 13.2422 74.8906 13.4922C75.6094 13.7422 76.224 14.138 76.7344 14.6797C77.2448 15.2214 77.6406 15.9141 77.9219 16.7578C78.2031 17.5911 78.3438 18.6016 78.3438 19.7891V30.3359H74.6094V19.8516C74.6094 19.1536 74.5312 18.5703 74.375 18.1016C74.2188 17.6328 73.9896 17.2578 73.6875 16.9766C73.3854 16.6953 73.0208 16.4974 72.5938 16.3828C72.1667 16.2578 71.6771 16.1953 71.125 16.1953C70.6667 16.1953 70.2396 16.2578 69.8438 16.3828C69.4479 16.4974 69.0885 16.6641 68.7656 16.8828C68.5156 17.0495 68.2812 17.2526 68.0625 17.4922C67.8438 17.7318 67.651 17.9922 67.4844 18.2734V30.3359H63.75Z" fill="#090C0D"/>
<path d="M45 7.58594H58.4062V10.6953H53.5469V27.2422H58.4062V30.3359H45V27.2422H49.75V10.6953H45V7.58594Z" fill="#090C0D"/>
</svg>
